<?xml version="1.0" encoding="UTF-8" standalone="no"?>
<svg
   xmlns:dc="http://purl.org/dc/elements/1.1/"
   xmlns:cc="http://creativecommons.org/ns#"
   xmlns:rdf="http://www.w3.org/1999/02/22-rdf-syntax-ns#"
   xmlns:svg="http://www.w3.org/2000/svg"
   xmlns="http://www.w3.org/2000/svg"
   xmlns:sodipodi="http://sodipodi.sourceforge.net/DTD/sodipodi-0.dtd"
   xmlns:inkscape="http://www.inkscape.org/namespaces/inkscape"
   viewBox="0 0 505.56693 361.14532"
   height="361.14532"
   width="505.56693"
   xml:space="preserve"
   id="svg2"
   version="1.1"
   sodipodi:docname="sady - liscie.svg"
   inkscape:version="0.92.3 (2405546, 2018-03-11)"><sodipodi:namedview
     pagecolor="#ffffff"
     bordercolor="#666666"
     borderopacity="1"
     objecttolerance="10"
     gridtolerance="10"
     guidetolerance="10"
     inkscape:pageopacity="0"
     inkscape:pageshadow="2"
     inkscape:window-width="1920"
     inkscape:window-height="1012"
     id="namedview176"
     showgrid="false"
     inkscape:zoom="0.21024124"
     inkscape:cx="275.09948"
     inkscape:cy="112.74339"
     inkscape:window-x="0"
     inkscape:window-y="0"
     inkscape:window-maximized="1"
     inkscape:current-layer="svg2" /><metadata
     id="metadata8"><rdf:RDF><cc:Work
         rdf:about=""><dc:format>image/svg+xml</dc:format><dc:type
           rdf:resource="http://purl.org/dc/dcmitype/StillImage" /><dc:title></dc:title></cc:Work></rdf:RDF></metadata><defs
     id="defs6"><clipPath
       id="clipPath18"
       clipPathUnits="userSpaceOnUse"><path
         id="path16"
         d="M 0,841.89 H 595.28 V 0 H 0 Z"
         inkscape:connector-curvature="0" /></clipPath></defs><g
     transform="matrix(1.3333333,0,0,-1.3333333,-131.26674,809.66193)"
     id="g10"><g
       id="g12"><g
         transform="translate(-6.688745,9.8101593)"
         clip-path="url(#clipPath18)"
         id="g14"><g
           transform="translate(151.9429,382.2002)"
           id="g20"><path
             id="path22"
             style="fill:#93c025;fill-opacity:1;fill-rule:nonzero;stroke:none"
             d="m 0,0 c 9.824,-0.967 11.495,-11.501 11.495,-11.501 0,0 -3.706,-9.994 -13.518,-9.032 -9.813,0.969 -22.019,12.538 -22.019,12.538 0,0 14.229,8.969 24.042,7.995"
             inkscape:connector-curvature="0" /></g><g
           transform="translate(153.9458,356.2021)"
           id="g24"><path
             id="path26"
             style="fill:#548132;fill-opacity:1;fill-rule:nonzero;stroke:none"
             d="m 0,0 c 6.694,3.511 12.209,-2.535 12.209,-2.535 0,0 1.834,-7.964 -4.861,-11.462 -6.691,-3.51 -19.375,-1.234 -19.375,-1.234 0,0 5.345,11.717 12.027,15.231"
             inkscape:connector-curvature="0" /></g><g
           transform="translate(172.9014,342.5693)"
           id="g28"><path
             id="path30"
             style="fill:#548132;fill-opacity:1;fill-rule:nonzero;stroke:none"
             d="m 0,0 c 3.664,5.179 10.089,2.77 10.089,2.77 0,0 4.413,-5.262 0.755,-10.441 -3.664,-5.172 -14.023,-8.321 -14.023,-8.321 0,0 -0.479,10.814 3.179,15.992"
             inkscape:connector-curvature="0" /></g><g
           transform="translate(200.7812,400.124)"
           id="g32"><path
             id="path34"
             style="fill:#548132;fill-opacity:1;fill-rule:nonzero;stroke:none"
             d="m 0,0 c -1.956,-9.784 -12.727,-10.425 -12.727,-10.425 0,0 -9.703,4.718 -7.744,14.503 1.95,9.782 14.812,20.913 14.812,20.913 0,0 7.607,-15.218 5.659,-24.991"
             inkscape:connector-curvature="0" /></g><g
           transform="translate(275.1475,498.8491)"
           id="g36"><path
             id="path38"
             style="fill:#548132;fill-opacity:1;fill-rule:nonzero;stroke:none"
             d="m 0,0 c 7.58,-10.361 -1.176,-21.131 -1.176,-21.131 0,0 -12.925,-5.094 -20.51,5.262 -7.576,10.36 -6.959,32.242 -6.959,32.242 0,0 21.06,-6.017 28.645,-16.373"
             inkscape:connector-curvature="0" /></g><g
           transform="translate(243.0679,482.4712)"
           id="g40"><path
             id="path42"
             style="fill:#93c025;fill-opacity:1;fill-rule:nonzero;stroke:none"
             d="m 0,0 c 2.182,-8.386 -5.987,-12.973 -5.987,-12.973 0,0 -9.375,0.02 -11.556,8.404 -2.186,8.393 3.649,21.968 3.649,21.968 0,0 11.709,-9.019 13.894,-17.399"
             inkscape:connector-curvature="0" /></g><g
           transform="translate(224.1021,523.583)"
           id="g44"><path
             id="path46"
             style="fill:#548132;fill-opacity:1;fill-rule:nonzero;stroke:none"
             d="m 0,0 c 7.026,-1.802 7.064,-9.649 7.064,-9.649 0,0 -3.81,-6.851 -10.835,-5.045 -7.029,1.797 -14.61,11.57 -14.61,11.57 0,0 11.352,4.92 18.381,3.124"
             inkscape:connector-curvature="0" /></g><g
           transform="translate(172.9805,435.0215)"
           id="g48"><path
             id="path50"
             style="fill:#93c025;fill-opacity:1;fill-rule:nonzero;stroke:none"
             d="m 0,0 c 7.023,-1.797 7.067,-9.64 7.067,-9.64 0,0 -3.809,-6.856 -10.833,-5.054 -7.034,1.797 -14.606,11.569 -14.606,11.569 0,0 11.349,4.921 18.372,3.125"
             inkscape:connector-curvature="0" /></g><g
           transform="translate(342.918,531.7729)"
           id="g52"><path
             id="path54"
             style="fill:#548132;fill-opacity:1;fill-rule:nonzero;stroke:none"
             d="m 0,0 c -1.254,-7.152 -9.07,-7.794 -9.07,-7.794 0,0 -7.132,3.278 -5.877,10.419 1.254,7.143 10.424,15.445 10.424,15.445 0,0 5.778,-10.939 4.523,-18.07"
             inkscape:connector-curvature="0" /></g><g
           transform="translate(430.0283,501.2334)"
           id="g56"><path
             id="path58"
             style="fill:#548132;fill-opacity:1;fill-rule:nonzero;stroke:none"
             d="m 0,0 c -7.325,-6.426 -16.051,-0.534 -16.051,-0.534 0,0 -4.72,9.423 2.605,15.851 7.315,6.435 23.912,7.429 23.912,7.429 C 10.466,22.746 7.314,6.426 0,0"
             inkscape:connector-curvature="0" /></g><g
           transform="translate(462.1045,448.1113)"
           id="g60"><path
             id="path62"
             style="fill:#548132;fill-opacity:1;fill-rule:nonzero;stroke:none"
             d="m 0,0 c -7.327,-6.427 -16.043,-0.538 -16.043,-0.538 0,0 -4.699,9.414 2.637,15.83 7.313,6.437 23.889,7.444 23.889,7.444 C 10.483,22.736 7.332,6.417 0,0"
             inkscape:connector-curvature="0" /></g><g
           transform="translate(374.5078,531.1499)"
           id="g64"><path
             id="path66"
             style="fill:#548132;fill-opacity:1;fill-rule:nonzero;stroke:none"
             d="m 0,0 c -7.326,-6.431 -16.051,-0.529 -16.051,-0.529 0,0 -4.719,9.425 2.605,15.846 7.315,6.432 23.912,7.429 23.912,7.429 C 10.466,22.746 7.314,6.427 0,0"
             inkscape:connector-curvature="0" /></g><g
           transform="translate(135.2534,434.1035)"
           id="g68"><path
             id="path70"
             style="fill:#548132;fill-opacity:1;fill-rule:nonzero;stroke:none"
             d="m 0,0 c 3.17,6.52 10.862,4.996 10.862,4.996 0,0 5.96,-5.1 2.786,-11.625 -3.167,-6.536 -14.259,-12 -14.259,-12 0,0 -2.556,12.104 0.611,18.629"
             inkscape:connector-curvature="0" /></g><g
           transform="translate(123.6118,465.4517)"
           id="g72"><path
             id="path74"
             style="fill:#548132;fill-opacity:1;fill-rule:nonzero;stroke:none"
             d="m 0,0 c 6.168,-3.8 3.869,-11.308 3.869,-11.308 0,0 -5.681,-5.409 -11.853,-1.6 -6.169,3.816 -10.489,15.401 -10.489,15.401 0,0 12.301,1.322 18.473,-2.493"
             inkscape:connector-curvature="0" /></g><g
           transform="translate(159.6982,410.3066)"
           id="g76"><path
             id="path78"
             style="fill:#548132;fill-opacity:1;fill-rule:nonzero;stroke:none"
             d="m 0,0 c 5.983,-0.104 7.501,-6.383 7.501,-6.383 0,0 -1.741,-6.223 -7.718,-6.116 -5.974,0.105 -13.91,6.497 -13.91,6.497 0,0 8.158,6.106 14.127,6.002"
             inkscape:connector-curvature="0" /></g><g
           transform="translate(126.6807,401.1494)"
           id="g80"><path
             id="path82"
             style="fill:#93c025;fill-opacity:1;fill-rule:nonzero;stroke:none"
             d="m 0,0 c 5.978,-0.106 7.501,-6.376 7.501,-6.376 0,0 -1.741,-6.224 -7.719,-6.121 -5.976,0.108 -13.915,6.496 -13.915,6.496 0,0 8.161,6.105 14.133,6.001"
             inkscape:connector-curvature="0" /></g><g
           transform="translate(152.4551,508.2271)"
           id="g84"><path
             id="path86"
             style="fill:#548132;fill-opacity:1;fill-rule:nonzero;stroke:none"
             d="m 0,0 c 1.655,-5.74 -3.897,-9.038 -3.897,-9.038 0,0 -6.462,-0.158 -8.111,5.582 -1.654,5.747 2.137,15.214 2.137,15.214 0,0 8.228,-6.017 9.871,-11.758"
             inkscape:connector-curvature="0" /></g><g
           transform="translate(270.2344,527.8921)"
           id="g88"><path
             id="path90"
             style="fill:#548132;fill-opacity:1;fill-rule:nonzero;stroke:none"
             d="m 0,0 c -1.437,-7.542 -9.727,-8.095 -9.727,-8.095 0,0 -7.499,3.574 -6.057,11.121 1.446,7.552 11.286,16.205 11.286,16.205 0,0 5.944,-11.678 4.498,-19.231"
             inkscape:connector-curvature="0" /></g><g
           transform="translate(245.6553,535.4609)"
           id="g92"><path
             id="path94"
             style="fill:#548132;fill-opacity:1;fill-rule:nonzero;stroke:none"
             d="m 0,0 c -1.437,-7.543 -9.73,-8.105 -9.73,-8.105 0,0 -7.498,3.586 -6.052,11.129 1.437,7.548 11.278,16.201 11.278,16.201 0,0 5.95,-11.678 4.504,-19.225"
             inkscape:connector-curvature="0" /></g><g
           transform="translate(216.2305,484.8403)"
           id="g96"><path
             id="path98"
             style="fill:#548132;fill-opacity:1;fill-rule:nonzero;stroke:none"
             d="m 0,0 c -1.426,-6.831 -8.953,-7.212 -8.953,-7.212 0,0 -6.744,3.357 -5.324,10.179 1.418,6.821 10.47,14.521 10.47,14.521 0,0 5.219,-10.666 3.807,-17.488"
             inkscape:connector-curvature="0" /></g><g
           transform="translate(141.1777,457.0312)"
           id="g100"><path
             id="path102"
             style="fill:#548132;fill-opacity:1;fill-rule:nonzero;stroke:none"
             d="m 0,0 c 5.831,3.825 11.421,-1.229 11.421,-1.229 0,0 2.404,-7.138 -3.423,-10.959 -5.831,-3.826 -17.682,-2.873 -17.682,-2.873 0,0 3.858,11.245 9.684,15.061"
             inkscape:connector-curvature="0" /></g><g
           transform="translate(187.1812,509.2598)"
           id="g104"><path
             id="path106"
             style="fill:#548132;fill-opacity:1;fill-rule:nonzero;stroke:none"
             d="m 0,0 c -1.649,-7.923 -10.38,-8.367 -10.38,-8.367 0,0 -7.828,3.885 -6.185,11.807 1.648,7.923 12.148,16.861 12.148,16.861 0,0 6.065,-12.389 4.417,-20.301"
             inkscape:connector-curvature="0" /></g><g
           transform="translate(131.7842,494.3911)"
           id="g108"><path
             id="path110"
             style="fill:#93c025;fill-opacity:1;fill-rule:nonzero;stroke:none"
             d="m 0,0 c 7.815,-2.116 7.739,-10.858 7.739,-10.858 0,0 -4.349,-7.592 -12.157,-5.475 -7.805,2.109 -16.106,13.115 -16.106,13.115 0,0 12.72,5.326 20.524,3.218"
             inkscape:connector-curvature="0" /></g><g
           transform="translate(353.6299,500.9912)"
           id="g112"><path
             id="path114"
             style="fill:#548132;fill-opacity:1;fill-rule:nonzero;stroke:none"
             d="m 0,0 c -7.761,-3.88 -13.94,3.169 -13.94,3.169 0,0 -1.926,9.172 5.824,13.041 7.762,3.885 22.253,0.992 22.253,0.992 C 14.137,17.202 7.75,3.879 0,0"
             inkscape:connector-curvature="0" /></g><g
           transform="translate(295.7793,511.5933)"
           id="g116"><path
             id="path118"
             style="fill:#548132;fill-opacity:1;fill-rule:nonzero;stroke:none"
             d="m 0,0 c -0.43,-9.215 -10.201,-11.298 -10.201,-11.298 0,0 -9.53,2.976 -9.095,12.191 0.437,9.227 10.664,21.196 10.664,21.196 0,0 9.066,-12.873 8.632,-22.089"
             inkscape:connector-curvature="0" /></g><g
           transform="translate(421.0742,459.9478)"
           id="g120"><path
             id="path122"
             style="fill:#93c025;fill-opacity:1;fill-rule:nonzero;stroke:none"
             d="m 0,0 c -12.171,-1.076 -16.645,11.369 -16.645,11.369 0,0 2.213,13.035 14.384,14.121 C 9.924,26.571 27.475,15.283 27.475,15.283 27.475,15.283 12.191,1.086 0,0"
             inkscape:connector-curvature="0" /></g><g
           transform="translate(396.166,503.9292)"
           id="g124"><path
             id="path126"
             style="fill:#548132;fill-opacity:1;fill-rule:nonzero;stroke:none"
             d="m 0,0 c -4.371,-10.607 -16.658,-8.964 -16.658,-8.964 0,0 -9.922,7.479 -5.554,18.081 4.354,10.612 21.323,20.351 21.323,20.351 0,0 5.235,-18.861 0.889,-29.468"
             inkscape:connector-curvature="0" /></g><g
           transform="translate(322.8975,516.604)"
           id="g128"><path
             id="path130"
             style="fill:#548132;fill-opacity:1;fill-rule:nonzero;stroke:none"
             d="m 0,0 c 4.196,-9.047 -4.128,-15.919 -4.128,-15.919 0,0 -10.615,-1.91 -14.802,7.143 -4.196,9.047 -0.371,25.633 -0.371,25.633 0,0 15.116,-7.809 19.301,-16.857"
             inkscape:connector-curvature="0" /></g><g
           transform="translate(300.8184,553.5049)"
           id="g132"><path
             id="path134"
             style="fill:#93c025;fill-opacity:1;fill-rule:nonzero;stroke:none"
             d="m 0,0 c 4.189,-9.046 -4.126,-15.913 -4.126,-15.913 0,0 -10.623,-1.91 -14.812,7.138 -4.192,9.051 -0.367,25.631 -0.367,25.631 0,0 15.114,-7.803 19.305,-16.856"
             inkscape:connector-curvature="0" /></g><g
           transform="translate(216.1011,543.4409)"
           id="g136"><path
             id="path138"
             style="fill:#93c025;fill-opacity:1;fill-rule:nonzero;stroke:none"
             d="m 0,0 c -1.037,-9.921 -11.698,-11.555 -11.698,-11.555 0,0 -10.098,3.805 -9.064,13.723 1.038,9.921 12.82,22.202 12.82,22.202 0,0 8.984,-14.449 7.942,-24.37"
             inkscape:connector-curvature="0" /></g><g
           transform="translate(171.8306,527.7104)"
           id="g140"><path
             id="path142"
             style="fill:#93c025;fill-opacity:1;fill-rule:nonzero;stroke:none"
             d="m 0,0 c -3.309,-8.658 -13.274,-7.578 -13.274,-7.578 0,0 -8.169,5.841 -4.852,14.494 3.302,8.671 16.824,16.881 16.824,16.881 0,0 4.613,-15.13 1.302,-23.797"
             inkscape:connector-curvature="0" /></g><g
           transform="translate(192.355,556.8867)"
           id="g144"><path
             id="path146"
             style="fill:#548132;fill-opacity:1;fill-rule:nonzero;stroke:none"
             d="m 0,0 c -2.533,-6.64 -10.168,-5.806 -10.168,-5.806 0,0 -6.254,4.473 -3.717,11.103 2.531,6.634 12.887,12.927 12.887,12.927 C -0.998,18.224 2.53,6.64 0,0"
             inkscape:connector-curvature="0" /></g><g
           transform="translate(264.1929,564.7256)"
           id="g148"><path
             id="path150"
             style="fill:#93c025;fill-opacity:1;fill-rule:nonzero;stroke:none"
             d="m 0,0 c 4.013,-5.37 -0.507,-11.037 -0.507,-11.037 0,0 -6.719,-2.714 -10.724,2.66 -4.001,5.372 -3.772,16.798 -3.772,16.798 0,0 11.009,-3.051 15.003,-8.421"
             inkscape:connector-curvature="0" /></g><g
           transform="translate(234.1748,565.54)"
           id="g152"><path
             id="path154"
             style="fill:#548132;fill-opacity:1;fill-rule:nonzero;stroke:none"
             d="m 0,0 c -0.779,-7.494 -8.833,-8.727 -8.833,-8.727 0,0 -7.621,2.862 -6.836,10.35 0.774,7.488 9.659,16.759 9.659,16.759 0,0 6.781,-10.904 6.01,-18.382"
             inkscape:connector-curvature="0" /></g><g
           transform="translate(324.4668,552.9385)"
           id="g156"><path
             id="path158"
             style="fill:#548132;fill-opacity:1;fill-rule:nonzero;stroke:none"
             d="m 0,0 c -3.861,-7.42 -12.688,-5.4 -12.688,-5.4 0,0 -6.695,6.086 -2.826,13.494 3.875,7.42 16.848,13.358 16.848,13.358 C 1.334,21.452 3.879,7.413 0,0"
             inkscape:connector-curvature="0" /></g><g
           transform="translate(357.0332,564.2568)"
           id="g160"><path
             id="path162"
             style="fill:#93c025;fill-opacity:1;fill-rule:nonzero;stroke:none"
             d="m 0,0 c 1.146,-8.289 -7.205,-11.748 -7.205,-11.748 0,0 -8.992,1.071 -10.139,9.357 -1.136,8.288 5.994,20.643 5.994,20.643 0,0 10.216,-9.964 11.35,-18.252"
             inkscape:connector-curvature="0" /></g><g
           transform="translate(305.5586,586.063)"
           id="g164"><path
             id="path166"
             style="fill:#548132;fill-opacity:1;fill-rule:nonzero;stroke:none"
             d="m 0,0 c 4.294,-5.208 0.021,-11.13 0.021,-11.13 0,0 -6.633,-3.065 -10.923,2.142 -4.291,5.218 -4.625,16.733 -4.625,16.733 0,0 11.232,-2.527 15.527,-7.745"
             inkscape:connector-curvature="0" /></g><g
           transform="translate(277.8896,586.063)"
           id="g168"><path
             id="path170"
             style="fill:#548132;fill-opacity:1;fill-rule:nonzero;stroke:none"
             d="m 0,0 c 4.3,-5.208 0.024,-11.13 0.024,-11.13 0,0 -6.632,-3.065 -10.925,2.142 -4.293,5.218 -4.628,16.733 -4.628,16.733 0,0 11.237,-2.527 15.529,-7.745"
             inkscape:connector-curvature="0" /></g><g
           transform="translate(249.1177,580.1353)"
           id="g172"><path
             id="path174"
             style="fill:#93c025;fill-opacity:1;fill-rule:nonzero;stroke:none"
             d="m 0,0 c -2.264,-6.362 -9.542,-5.731 -9.542,-5.731 0,0 -6.03,4.122 -3.759,10.479 2.269,6.358 11.982,12.553 11.982,12.553 0,0 3.593,-10.938 1.319,-17.301"
             inkscape:connector-curvature="0" /></g><g
           transform="translate(417.4814,540.1543)"
           id="g176"><path
             id="path178"
             style="fill:#93c025;fill-opacity:1;fill-rule:nonzero;stroke:none"
             d="m 0,0 c 2.398,-6.315 -3.554,-10.544 -3.554,-10.544 0,0 -7.264,-0.784 -9.644,5.533 -2.4,6.318 0.987,17.33 0.987,17.33 0,0 9.832,-6.011 12.211,-12.319"
             inkscape:connector-curvature="0" /></g><g
           transform="translate(383.7002,563.7529)"
           id="g180"><path
             id="path182"
             style="fill:#548132;fill-opacity:1;fill-rule:nonzero;stroke:none"
             d="m 0,0 c -3.841,-5.559 -10.713,-3.075 -10.713,-3.075 0,0 -4.757,5.529 -0.938,11.086 3.842,5.569 14.819,9.048 14.819,9.048 C 3.168,17.059 3.821,5.562 0,0"
             inkscape:connector-curvature="0" /></g><g
           transform="translate(335.5146,583.3291)"
           id="g184"><path
             id="path186"
             style="fill:#93c025;fill-opacity:1;fill-rule:nonzero;stroke:none"
             d="m 0,0 c 0.651,-6.091 -5.541,-8.445 -5.541,-8.445 0,0 -6.562,0.982 -7.214,7.073 -0.652,6.096 4.847,14.985 4.847,14.985 0,0 7.255,-7.527 7.908,-13.613"
             inkscape:connector-curvature="0" /></g><g
           transform="translate(278.7148,341.8105)"
           id="g188"><path
             id="path190"
             style="fill:#548132;fill-opacity:1;fill-rule:nonzero;stroke:none"
             d="m 0,0 c -5.687,7.62 0.741,15.656 0.741,15.656 0,0 9.536,3.856 15.222,-3.766 5.68,-7.632 5.361,-23.857 5.361,-23.857 0,0 -15.642,4.335 -21.324,11.967"
             inkscape:connector-curvature="0" /></g><g
           transform="translate(325.4814,352.9248)"
           id="g192"><path
             id="path194"
             style="fill:#93c025;fill-opacity:1;fill-rule:nonzero;stroke:none"
             d="m 0,0 c -6.556,7.198 -0.808,16.014 -0.808,16.014 0,0 9.33,4.866 15.867,-2.335 6.543,-7.207 7.825,-23.734 7.825,-23.734 0,0 -16.346,2.853 -22.884,10.055"
             inkscape:connector-curvature="0" /></g><g
           transform="translate(352.2969,432.686)"
           id="g196"><path
             id="path198"
             style="fill:#548132;fill-opacity:1;fill-rule:nonzero;stroke:none"
             d="m 0,0 c -6.408,3.5 -4.492,11.15 -4.492,11.15 0,0 5.431,5.732 11.816,2.238 C 13.721,9.877 18.667,-1.52 18.667,-1.52 18.667,-1.52 6.386,-3.505 0,0"
             inkscape:connector-curvature="0" /></g><g
           transform="translate(465.627,421.2051)"
           id="g200"><path
             id="path202"
             style="fill:#93c025;fill-opacity:1;fill-rule:nonzero;stroke:none"
             d="m 0,0 c -6.387,3.505 -4.481,11.156 -4.481,11.156 0,0 5.419,5.731 11.817,2.231 C 13.732,9.882 18.687,-1.525 18.687,-1.525 18.687,-1.525 6.397,-3.499 0,0"
             inkscape:connector-curvature="0" /></g><g
           transform="translate(460.6143,497.748)"
           id="g204"><path
             id="path206"
             style="fill:#93c025;fill-opacity:1;fill-rule:nonzero;stroke:none"
             d="m 0,0 c 0.71,-7.26 -6.674,-10 -6.674,-10 0,0 -7.79,1.254 -8.512,8.504 -0.702,7.252 5.924,17.775 5.924,17.775 0,0 8.552,-9.029 9.262,-16.279"
             inkscape:connector-curvature="0" /></g><g
           transform="translate(357.3896,404.7979)"
           id="g208"><path
             id="path210"
             style="fill:#548132;fill-opacity:1;fill-rule:nonzero;stroke:none"
             d="m 0,0 c -6.722,-2.838 -11.529,3.417 -11.529,3.417 0,0 -1.116,7.804 5.596,10.641 6.722,2.833 18.727,-0.375 18.727,-0.375 C 12.794,13.683 6.713,2.833 0,0"
             inkscape:connector-curvature="0" /></g><g
           transform="translate(427.748,419.8613)"
           id="g212"><path
             id="path214"
             style="fill:#548132;fill-opacity:1;fill-rule:nonzero;stroke:none"
             d="m 0,0 c -8.282,5.536 -4.769,15.738 -4.769,15.738 0,0 8.078,7.152 16.369,1.614 C 19.901,11.803 25.272,-4.332 25.272,-4.332 25.272,-4.332 8.294,-5.547 0,0"
             inkscape:connector-curvature="0" /></g><g
           transform="translate(381.0449,442.479)"
           id="g216"><path
             id="path218"
             style="fill:#548132;fill-opacity:1;fill-rule:nonzero;stroke:none"
             d="m 0,0 c -8.097,1.757 -8.49,10.712 -8.49,10.712 0,0 4.065,7.987 12.15,6.234 C 11.775,15.194 20.839,4.37 20.839,4.37 20.839,4.37 8.095,-1.751 0,0"
             inkscape:connector-curvature="0" /></g><g
           transform="translate(412.9248,380.0312)"
           id="g220"><path
             id="path222"
             style="fill:#548132;fill-opacity:1;fill-rule:nonzero;stroke:none"
             d="m 0,0 c -13.552,6.096 -10.884,21.937 -10.884,21.937 0,0 10.096,12.494 23.636,6.398 C 26.3,22.233 38.165,-0.148 38.165,-0.148 38.165,-0.148 13.542,-6.098 0,0"
             inkscape:connector-curvature="0" /></g><g
           transform="translate(399.7207,410.7012)"
           id="g224"><path
             id="path226"
             style="fill:#93c025;fill-opacity:1;fill-rule:nonzero;stroke:none"
             d="m 0,0 c -5.098,-8.578 -15.464,-5.595 -15.464,-5.595 0,0 -7.571,7.679 -2.474,16.253 5.096,8.572 20.931,14.79 20.931,14.79 C 2.993,25.448 5.087,8.566 0,0"
             inkscape:connector-curvature="0" /></g><g
           transform="translate(369.9746,353.0781)"
           id="g228"><path
             id="path230"
             style="fill:#548132;fill-opacity:1;fill-rule:nonzero;stroke:none"
             d="m 0,0 c -6.273,7.753 0.115,16.453 0.115,16.453 0,0 9.823,4.44 16.11,-3.32 6.272,-7.751 6.622,-24.75 6.622,-24.75 0,0 -16.569,3.871 -22.847,11.617"
             inkscape:connector-curvature="0" /></g><g
           transform="translate(337.3184,472.4893)"
           id="g232"><path
             id="path234"
             style="fill:#93c025;fill-opacity:1;fill-rule:nonzero;stroke:none"
             d="m 0,0 c -2.051,-10.246 -13.34,-10.917 -13.34,-10.917 0,0 -10.161,4.958 -8.12,15.205 2.049,10.258 15.542,21.938 15.542,21.938 0,0 7.964,-15.961 5.918,-26.226"
             inkscape:connector-curvature="0" /></g><g
           transform="translate(317.0439,451.0303)"
           id="g236"><path
             id="path238"
             style="fill:#548132;fill-opacity:1;fill-rule:nonzero;stroke:none"
             d="m 0,0 c 4.915,-8.408 -2.53,-15.855 -2.53,-15.855 0,0 -10.15,-2.839 -15.069,5.566 -4.911,8.407 -2.744,24.872 -2.744,24.872 0,0 15.425,-6.178 20.343,-14.583"
             inkscape:connector-curvature="0" /></g><g
           transform="translate(337.8027,410.0361)"
           id="g240"><path
             id="path242"
             style="fill:#93c025;fill-opacity:1;fill-rule:nonzero;stroke:none"
             d="m 0,0 c -4.03,-11.901 -17.582,-10.946 -17.582,-10.946 0,0 -11.338,7.476 -7.308,19.372 4.033,11.892 21.906,23.701 21.906,23.701 0,0 7.004,-20.245 2.984,-32.127"
             inkscape:connector-curvature="0" /></g><g
           transform="translate(346.5781,453.7251)"
           id="g244"><path
             id="path246"
             style="fill:#548132;fill-opacity:1;fill-rule:nonzero;stroke:none"
             d="m 0,0 c -3.895,-3.919 -9.063,-0.923 -9.063,-0.923 0,0 -3.038,5.145 0.858,9.064 3.891,3.92 13.232,5.127 13.232,5.127 C 5.027,13.268 3.887,3.917 0,0"
             inkscape:connector-curvature="0" /></g><g
           transform="translate(374.8916,464.9551)"
           id="g248"><path
             id="path250"
             style="fill:#93c025;fill-opacity:1;fill-rule:nonzero;stroke:none"
             d="m 0,0 c -3.464,-7.032 -11.764,-5.338 -11.764,-5.338 0,0 -6.402,5.547 -2.94,12.572 3.46,7.028 15.475,12.874 15.475,12.874 C 0.771,20.108 3.451,7.02 0,0"
             inkscape:connector-curvature="0" /></g><g
           transform="translate(358.126,479.1055)"
           id="g252"><path
             id="path254"
             style="fill:#548132;fill-opacity:1;fill-rule:nonzero;stroke:none"
             d="m 0,0 c -6.012,-4.295 -12.142,0.805 -12.142,0.805 0,0 -2.836,7.457 3.183,11.743 C -2.956,16.852 9.625,16.36 9.625,16.36 9.625,16.36 6.016,4.288 0,0"
             inkscape:connector-curvature="0" /></g><g
           transform="translate(406.6914,487.0806)"
           id="g256"><path
             id="path258"
             style="fill:#93c025;fill-opacity:1;fill-rule:nonzero;stroke:none"
             d="m 0,0 c -2.357,-5.868 -9.143,-5.012 -9.143,-5.012 0,0 -5.49,4.076 -3.133,9.941 2.359,5.866 11.672,11.303 11.672,11.303 0,0 2.956,-10.371 0.604,-16.232"
             inkscape:connector-curvature="0" /></g><g
           transform="translate(388.4619,467.0176)"
           id="g260"><path
             id="path262"
             style="fill:#548132;fill-opacity:1;fill-rule:nonzero;stroke:none"
             d="m 0,0 c -4.082,3.157 -1.905,8.298 -1.905,8.298 0,0 4.426,3.402 8.504,0.25 C 10.69,5.39 12.887,-3.125 12.887,-3.125 12.887,-3.125 4.083,-3.152 0,0"
             inkscape:connector-curvature="0" /></g><g
           transform="translate(279.1221,410.877)"
           id="g264"><path
             id="path266"
             style="fill:#548132;fill-opacity:1;fill-rule:nonzero;stroke:none"
             d="m 0,0 c -5.426,-4.887 -12.009,-0.545 -12.009,-0.545 0,0 -3.608,7.025 1.804,11.891 C -4.773,16.218 7.62,17.108 7.62,17.108 7.62,17.108 5.422,4.863 0,0"
             inkscape:connector-curvature="0" /></g><g
           transform="translate(307.123,406.4395)"
           id="g268"><path
             id="path270"
             style="fill:#548132;fill-opacity:1;fill-rule:nonzero;stroke:none"
             d="m 0,0 c 0.449,-7.281 -7.045,-9.744 -7.045,-9.744 0,0 -7.733,1.533 -8.185,8.805 -0.446,7.281 6.558,17.544 6.558,17.544 0,0 8.223,-9.332 8.672,-16.605"
             inkscape:connector-curvature="0" /></g><g
           transform="translate(236.604,409.9336)"
           id="g272"><path
             id="path274"
             style="fill:#93c025;fill-opacity:1;fill-rule:nonzero;stroke:none"
             d="m 0,0 c 8.988,-5.33 5.88,-16.203 5.88,-16.203 0,0 -8.045,-7.945 -17.037,-2.623 -8.999,5.332 -15.548,21.931 -15.548,21.931 0,0 17.698,2.227 26.705,-3.105"
             inkscape:connector-curvature="0" /></g><g
           transform="translate(250.1328,383.6934)"
           id="g276"><path
             id="path278"
             style="fill:#548132;fill-opacity:1;fill-rule:nonzero;stroke:none"
             d="m 0,0 c 9.562,1.852 14.121,-7.641 14.121,-7.641 0,0 -0.685,-10.515 -10.246,-12.373 -9.558,-1.847 -24.375,5.653 -24.375,5.653 0,0 10.94,12.507 20.5,14.361"
             inkscape:connector-curvature="0" /></g><g
           transform="translate(295.689,389.6953)"
           id="g280"><path
             id="path282"
             style="fill:#93c025;fill-opacity:1;fill-rule:nonzero;stroke:none"
             d="m 0,0 c 9.893,-7.746 4.502,-20.215 4.502,-20.215 0,0 -10.811,-8.221 -20.699,-0.476 C -26.082,-12.945 -31.3,7.83 -31.3,7.83 -31.3,7.83 -9.878,7.73 0,0"
             inkscape:connector-curvature="0" /></g><g
           transform="translate(257.3765,412.4531)"
           id="g284"><path
             id="path286"
             style="fill:#548132;fill-opacity:1;fill-rule:nonzero;stroke:none"
             d="m 0,0 c 2.408,-4.975 -2.132,-8.857 -2.132,-8.857 0,0 -5.861,-1.163 -8.267,3.812 -2.41,4.971 -0.454,14.184 -0.454,14.184 0,0 8.445,-4.174 10.853,-9.139"
             inkscape:connector-curvature="0" /></g><g
           transform="translate(259.6348,441.0596)"
           id="g288"><path
             id="path290"
             style="fill:#93c025;fill-opacity:1;fill-rule:nonzero;stroke:none"
             d="m 0,0 c 4.081,-4.164 0.846,-9.57 0.846,-9.57 0,0 -5.47,-3.126 -9.546,1.035 -4.078,4.16 -5.22,14.032 -5.22,14.032 0,0 9.845,-1.345 13.92,-5.497"
             inkscape:connector-curvature="0" /></g><g
           transform="translate(237.2051,439.7827)"
           id="g292"><path
             id="path294"
             style="fill:#548132;fill-opacity:1;fill-rule:nonzero;stroke:none"
             d="m 0,0 c 2.963,-10.205 -6.878,-16.092 -6.878,-16.092 0,0 -11.471,-0.295 -14.418,9.915 -2.98,10.197 3.683,27.033 3.683,27.033 0,0 14.661,-10.65 17.613,-20.856"
             inkscape:connector-curvature="0" /></g><g
           transform="translate(306.9043,491.2881)"
           id="g296"><path
             id="path298"
             style="fill:#548132;fill-opacity:1;fill-rule:nonzero;stroke:none"
             d="m 0,0 c 6.765,-3.654 4.807,-11.737 4.807,-11.737 0,0 -5.683,-6.069 -12.439,-2.422 -6.776,3.654 -12.063,15.637 -12.063,15.637 0,0 12.933,2.168 19.695,-1.478"
             inkscape:connector-curvature="0" /></g><g
           transform="translate(285.6348,453.8433)"
           id="g300"><path
             id="path302"
             style="fill:#93c025;fill-opacity:1;fill-rule:nonzero;stroke:none"
             d="m 0,0 c 5.499,-7.572 -0.916,-15.396 -0.916,-15.396 0,0 -9.423,-3.672 -14.917,3.897 -5.491,7.569 -4.974,23.513 -4.974,23.513 0,0 15.317,-4.458 20.807,-12.014"
             inkscape:connector-curvature="0" /></g><g
           transform="translate(204.4277,457.4585)"
           id="g304"><path
             id="path306"
             style="fill:#93c025;fill-opacity:1;fill-rule:nonzero;stroke:none"
             d="m 0,0 c 5.371,-9.995 -3.609,-18.356 -3.609,-18.356 0,0 -11.937,-2.881 -17.312,7.112 -5.369,9.994 -2.157,29.075 -2.157,29.075 0,0 17.702,-7.838 23.078,-17.831"
             inkscape:connector-curvature="0" /></g><g
           transform="translate(258.1782,460.2798)"
           id="g308"><path
             id="path310"
             style="fill:#548132;fill-opacity:1;fill-rule:nonzero;stroke:none"
             d="m 0,0 c -0.112,-6.345 -6.767,-7.964 -6.767,-7.964 0,0 -6.594,1.857 -6.472,8.202 0.101,6.344 6.876,14.771 6.876,14.771 0,0 6.482,-8.666 6.363,-15.009"
             inkscape:connector-curvature="0" /></g><g
           transform="translate(169.3437,475.4995)"
           id="g312"><path
             id="path314"
             style="fill:#548132;fill-opacity:1;fill-rule:nonzero;stroke:none"
             d="m 0,0 c -1.855,-10.256 -13.094,-11.131 -13.094,-11.131 0,0 -10.227,4.756 -8.374,15.014 1.856,10.253 15.078,22.133 15.078,22.133 0,0 8.24,-15.758 6.39,-26.016"
             inkscape:connector-curvature="0" /></g><g
           transform="translate(194.1191,487.6514)"
           id="g316"><path
             id="path318"
             style="fill:#548132;fill-opacity:1;fill-rule:nonzero;stroke:none"
             d="m 0,0 c -2.203,-5.201 -8.241,-4.323 -8.241,-4.323 0,0 -4.83,3.723 -2.633,8.918 2.196,5.195 10.593,9.891 10.593,9.891 0,0 2.471,-9.289 0.281,-14.486"
             inkscape:connector-curvature="0" /></g><g
           transform="translate(163.2769,456.0332)"
           id="g320"><path
             id="path322"
             style="fill:#548132;fill-opacity:1;fill-rule:nonzero;stroke:none"
             d="m 0,0 c 3.187,4.663 8.933,2.61 8.933,2.61 0,0 3.999,-4.603 0.818,-9.262 -3.178,-4.659 -12.337,-7.604 -12.337,-7.604 0,0 -0.588,9.595 2.586,14.256"
             inkscape:connector-curvature="0" /></g><g
           transform="translate(198.4419,383.9795)"
           id="g324"><path
             id="path326"
             style="fill:#93c025;fill-opacity:1;fill-rule:nonzero;stroke:none"
             d="m 0,0 c 11.447,2.611 17.329,-8.652 17.329,-8.652 0,0 -0.408,-12.699 -11.853,-15.321 -11.459,-2.62 -29.639,5.84 -29.639,5.84 0,0 12.698,15.508 24.163,18.133"
             inkscape:connector-curvature="0" /></g><g
           transform="translate(205.689,346.623)"
           id="g328"><path
             id="path330"
             style="fill:#93c025;fill-opacity:1;fill-rule:nonzero;stroke:none"
             d="m 0,0 c 4.879,5.053 11.51,1.336 11.51,1.336 0,0 3.951,-6.494 -0.924,-11.552 -4.882,-5.061 -16.756,-6.772 -16.756,-6.772 0,0 1.286,11.922 6.17,16.988"
             inkscape:connector-curvature="0" /></g><g
           transform="translate(243.4326,350.8828)"
           id="g332"><path
             id="path334"
             style="fill:#548132;fill-opacity:1;fill-rule:nonzero;stroke:none"
             d="m 0,0 c 4.636,6.555 12.768,3.505 12.768,3.505 0,0 5.585,-6.658 0.956,-13.213 -4.637,-6.545 -17.747,-10.531 -17.747,-10.531 0,0 -0.607,13.686 4.023,20.239"
             inkscape:connector-curvature="0" /></g><g
           transform="translate(330.0215,377.54)"
           id="g336"><path
             id="path338"
             style="fill:#548132;fill-opacity:1;fill-rule:nonzero;stroke:none"
             d="m 0,0 c -8.111,-1.478 -11.877,6.603 -11.877,6.603 0,0 0.688,8.882 8.789,10.362 8.111,1.472 20.565,-5.017 20.565,-5.017 C 17.477,11.948 8.102,1.475 0,0"
             inkscape:connector-curvature="0" /></g><g
           transform="translate(369.4102,377.9258)"
           id="g340"><path
             id="path342"
             style="fill:#93c025;fill-opacity:1;fill-rule:nonzero;stroke:none"
             d="m 0,0 c -9.72,0.478 -11.881,10.773 -11.881,10.773 0,0 3.164,10.032 12.879,9.552 C 10.714,19.845 23.3,9.034 23.3,9.034 23.3,9.034 9.705,-0.475 0,0"
             inkscape:connector-curvature="0" /></g><g
           transform="translate(415.0449,442.7905)"
           id="g344"><path
             id="path346"
             style="fill:#548132;fill-opacity:1;fill-rule:nonzero;stroke:none"
             d="m 0,0 c -5.134,-0.527 -7.101,4.698 -7.101,4.698 0,0 0.862,5.515 5.99,6.043 5.14,0.533 12.6,-4.121 12.6,-4.121 C 11.489,6.62 5.131,0.531 0,0"
             inkscape:connector-curvature="0" /></g><g
           transform="translate(399.3779,369.833)"
           id="g348"><path
             id="path350"
             style="fill:#93c025;fill-opacity:1;fill-rule:nonzero;stroke:none"
             d="m 0,0 c -4.096,2.963 -2.127,8.067 -2.127,8.067 0,0 4.225,3.48 8.329,0.52 4.103,-2.964 6.533,-11.244 6.533,-11.244 0,0 -8.631,-0.302 -12.735,2.657"
             inkscape:connector-curvature="0" /></g></g></g></g></svg>