<?xml version="1.0" encoding="UTF-8" standalone="no"?>
<!-- Created with Inkscape (http://www.inkscape.org/) -->

<svg
   xmlns:dc="http://purl.org/dc/elements/1.1/"
   xmlns:cc="http://creativecommons.org/ns#"
   xmlns:rdf="http://www.w3.org/1999/02/22-rdf-syntax-ns#"
   xmlns:svg="http://www.w3.org/2000/svg"
   xmlns="http://www.w3.org/2000/svg"
   xmlns:sodipodi="http://sodipodi.sourceforge.net/DTD/sodipodi-0.dtd"
   xmlns:inkscape="http://www.inkscape.org/namespaces/inkscape"
   version="1.1"
   id="svg2"
   xml:space="preserve"
   width="397.46399"
   height="324.81732"
   viewBox="0 0 397.46399 324.81732"
   sodipodi:docname="sady - podstawowe.svg"
   inkscape:version="0.92.3 (2405546, 2018-03-11)"><metadata
     id="metadata8"><rdf:RDF><cc:Work
         rdf:about=""><dc:format>image/svg+xml</dc:format><dc:type
           rdf:resource="http://purl.org/dc/dcmitype/StillImage" /><dc:title></dc:title></cc:Work></rdf:RDF></metadata><defs
     id="defs6"><clipPath
       clipPathUnits="userSpaceOnUse"
       id="clipPath18"><path
         d="M 0,841.89 H 595.28 V 0 H 0 Z"
         id="path16"
         inkscape:connector-curvature="0" /></clipPath></defs><sodipodi:namedview
     pagecolor="#ffffff"
     bordercolor="#666666"
     borderopacity="1"
     objecttolerance="10"
     gridtolerance="10"
     guidetolerance="10"
     inkscape:pageopacity="0"
     inkscape:pageshadow="2"
     inkscape:window-width="1920"
     inkscape:window-height="1012"
     id="namedview4"
     showgrid="false"
     inkscape:zoom="1.6819299"
     inkscape:cx="203.53874"
     inkscape:cy="213.94061"
     inkscape:window-x="0"
     inkscape:window-y="0"
     inkscape:window-maximized="1"
     inkscape:current-layer="g10" /><g
     id="g10"
     inkscape:groupmode="layer"
     inkscape:label="sady - podstawowe"
     transform="matrix(1.3333333,0,0,-1.3333333,-198.12213,747.55651)"><g
       id="g12"><g
         id="g14"
         clip-path="url(#clipPath18)"><g
           id="g20"
           transform="translate(242.7041,486.083)"><path
             d="m 0,0 c 3.404,-0.335 3.983,-3.985 3.983,-3.985 0,0 -1.284,-3.464 -4.684,-3.13 -3.401,0.335 -7.63,4.344 -7.63,4.344 0,0 4.931,3.108 8.331,2.771"
             style="fill:#93c025;fill-opacity:1;fill-rule:nonzero;stroke:none"
             id="path22"
             inkscape:connector-curvature="0" /></g><g
           id="g24"
           transform="translate(243.3984,477.0742)"><path
             d="m 0,0 c 2.319,1.216 4.23,-0.879 4.23,-0.879 0,0 0.636,-2.759 -1.684,-3.972 -2.318,-1.216 -6.714,-0.427 -6.714,-0.427 0,0 1.853,4.06 4.168,5.278"
             style="fill:#548132;fill-opacity:1;fill-rule:nonzero;stroke:none"
             id="path26"
             inkscape:connector-curvature="0" /></g><g
           id="g28"
           transform="translate(249.9668,472.3501)"><path
             d="m 0,0 c 1.27,1.794 3.496,0.959 3.496,0.959 0,0 1.529,-1.823 0.262,-3.617 -1.27,-1.793 -4.86,-2.884 -4.86,-2.884 0,0 -0.166,3.748 1.102,5.542"
             style="fill:#548132;fill-opacity:1;fill-rule:nonzero;stroke:none"
             id="path30"
             inkscape:connector-curvature="0" /></g><g
           id="g32"
           transform="translate(259.6279,492.2939)"><path
             d="m 0,0 c -0.678,-3.39 -4.41,-3.612 -4.41,-3.612 0,0 -3.362,1.634 -2.684,5.025 0.676,3.39 5.133,7.247 5.133,7.247 0,0 2.636,-5.273 1.961,-8.66"
             style="fill:#548132;fill-opacity:1;fill-rule:nonzero;stroke:none"
             id="path34"
             inkscape:connector-curvature="0" /></g><g
           id="g36"
           transform="translate(285.3975,526.5049)"><path
             d="m 0,0 c 2.627,-3.59 -0.407,-7.323 -0.407,-7.323 0,0 -4.479,-1.765 -7.108,1.824 -2.625,3.59 -2.411,11.172 -2.411,11.172 0,0 7.298,-2.085 9.926,-5.673"
             style="fill:#548132;fill-opacity:1;fill-rule:nonzero;stroke:none"
             id="path38"
             inkscape:connector-curvature="0" /></g><g
           id="g40"
           transform="translate(273.3555,519.8594)"><path
             d="m 0,0 c 2.909,-0.746 2.929,-3.992 2.929,-3.992 0,0 -1.579,-2.839 -4.488,-2.093 -2.911,0.745 -6.047,4.792 -6.047,4.792 0,0 4.699,2.037 7.606,1.293"
             style="fill:#93c025;fill-opacity:1;fill-rule:nonzero;stroke:none"
             id="path42"
             inkscape:connector-curvature="0" /></g><g
           id="g44"
           transform="translate(267.709,535.0757)"><path
             d="m 0,0 c 2.435,-0.625 2.448,-3.344 2.448,-3.344 0,0 -1.32,-2.374 -3.755,-1.748 -2.435,0.623 -5.062,4.009 -5.062,4.009 0,0 3.933,1.706 6.369,1.083"
             style="fill:#548132;fill-opacity:1;fill-rule:nonzero;stroke:none"
             id="path46"
             inkscape:connector-curvature="0" /></g><g
           id="g48"
           transform="translate(249.9941,504.3867)"><path
             d="m 0,0 c 2.434,-0.623 2.449,-3.34 2.449,-3.34 0,0 -1.32,-2.376 -3.754,-1.752 -2.437,0.623 -5.061,4.009 -5.061,4.009 0,0 3.932,1.706 6.366,1.083"
             style="fill:#93c025;fill-opacity:1;fill-rule:nonzero;stroke:none"
             id="path50"
             inkscape:connector-curvature="0" /></g><g
           id="g52"
           transform="translate(308.8818,537.9136)"><path
             d="m 0,0 c -0.435,-2.479 -3.144,-2.701 -3.144,-2.701 0,0 -2.47,1.136 -2.036,3.611 0.435,2.475 3.613,5.352 3.613,5.352 0,0 2.002,-3.791 1.567,-6.262"
             style="fill:#548132;fill-opacity:1;fill-rule:nonzero;stroke:none"
             id="path54"
             inkscape:connector-curvature="0" /></g><g
           id="g56"
           transform="translate(339.0674,527.3311)"><path
             d="m 0,0 c -2.538,-2.227 -5.562,-0.185 -5.562,-0.185 0,0 -1.635,3.265 0.903,5.493 2.535,2.23 8.286,2.574 8.286,2.574 C 3.627,7.882 2.535,2.227 0,0"
             style="fill:#548132;fill-opacity:1;fill-rule:nonzero;stroke:none"
             id="path58"
             inkscape:connector-curvature="0" /></g><g
           id="g60"
           transform="translate(350.1826,508.9229)"><path
             d="m 0,0 c -2.539,-2.227 -5.56,-0.187 -5.56,-0.187 0,0 -1.627,3.263 0.914,5.486 2.535,2.23 8.279,2.579 8.279,2.579 C 3.633,7.878 2.541,2.224 0,0"
             style="fill:#548132;fill-opacity:1;fill-rule:nonzero;stroke:none"
             id="path62"
             inkscape:connector-curvature="0" /></g><g
           id="g64"
           transform="translate(319.8281,537.6978)"><path
             d="m 0,0 c -2.538,-2.229 -5.562,-0.183 -5.562,-0.183 0,0 -1.635,3.266 0.903,5.491 2.535,2.229 8.286,2.574 8.286,2.574 C 3.627,7.882 2.535,2.227 0,0"
             style="fill:#548132;fill-opacity:1;fill-rule:nonzero;stroke:none"
             id="path66"
             inkscape:connector-curvature="0" /></g><g
           id="g68"
           transform="translate(236.9209,504.0688)"><path
             d="m 0,0 c 1.099,2.259 3.764,1.731 3.764,1.731 0,0 2.065,-1.767 0.965,-4.028 -1.097,-2.265 -4.941,-4.159 -4.941,-4.159 0,0 -0.886,4.195 0.212,6.456"
             style="fill:#548132;fill-opacity:1;fill-rule:nonzero;stroke:none"
             id="path70"
             inkscape:connector-curvature="0" /></g><g
           id="g72"
           transform="translate(232.8867,514.9316)"><path
             d="m 0,0 c 2.138,-1.317 1.341,-3.918 1.341,-3.918 0,0 -1.969,-1.875 -4.108,-0.555 -2.137,1.323 -3.634,5.337 -3.634,5.337 0,0 4.262,0.458 6.401,-0.864"
             style="fill:#548132;fill-opacity:1;fill-rule:nonzero;stroke:none"
             id="path74"
             inkscape:connector-curvature="0" /></g><g
           id="g76"
           transform="translate(245.3916,495.8228)"><path
             d="m 0,0 c 2.073,-0.036 2.6,-2.212 2.6,-2.212 0,0 -0.604,-2.157 -2.675,-2.119 -2.071,0.036 -4.821,2.251 -4.821,2.251 0,0 2.828,2.116 4.896,2.08"
             style="fill:#548132;fill-opacity:1;fill-rule:nonzero;stroke:none"
             id="path78"
             inkscape:connector-curvature="0" /></g><g
           id="g80"
           transform="translate(233.9502,492.6494)"><path
             d="m 0,0 c 2.071,-0.037 2.6,-2.209 2.6,-2.209 0,0 -0.604,-2.157 -2.675,-2.122 -2.071,0.038 -4.822,2.251 -4.822,2.251 0,0 2.828,2.116 4.897,2.08"
             style="fill:#93c025;fill-opacity:1;fill-rule:nonzero;stroke:none"
             id="path82"
             inkscape:connector-curvature="0" /></g><g
           id="g84"
           transform="translate(242.8818,529.7544)"><path
             d="m 0,0 c 0.573,-1.989 -1.351,-3.132 -1.351,-3.132 0,0 -2.239,-0.055 -2.81,1.935 -0.573,1.991 0.74,5.272 0.74,5.272 0,0 2.852,-2.086 3.421,-4.075"
             style="fill:#548132;fill-opacity:1;fill-rule:nonzero;stroke:none"
             id="path86"
             inkscape:connector-curvature="0" /></g><g
           id="g88"
           transform="translate(283.6953,536.5688)"><path
             d="m 0,0 c -0.498,-2.613 -3.371,-2.805 -3.371,-2.805 0,0 -2.599,1.238 -2.099,3.854 0.501,2.617 3.911,5.615 3.911,5.615 0,0 2.06,-4.047 1.559,-6.664"
             style="fill:#548132;fill-opacity:1;fill-rule:nonzero;stroke:none"
             id="path90"
             inkscape:connector-curvature="0" /></g><g
           id="g92"
           transform="translate(275.1777,539.1914)"><path
             d="m 0,0 c -0.498,-2.614 -3.372,-2.809 -3.372,-2.809 0,0 -2.598,1.244 -2.097,3.857 0.498,2.616 3.908,5.614 3.908,5.614 0,0 2.062,-4.047 1.561,-6.662"
             style="fill:#548132;fill-opacity:1;fill-rule:nonzero;stroke:none"
             id="path94"
             inkscape:connector-curvature="0" /></g><g
           id="g96"
           transform="translate(264.9814,521.6504)"><path
             d="m 0,0 c -0.494,-2.367 -3.103,-2.499 -3.103,-2.499 0,0 -2.336,1.163 -1.844,3.527 0.491,2.364 3.628,5.032 3.628,5.032 0,0 1.808,-3.696 1.319,-6.06"
             style="fill:#548132;fill-opacity:1;fill-rule:nonzero;stroke:none"
             id="path98"
             inkscape:connector-curvature="0" /></g><g
           id="g100"
           transform="translate(238.9736,512.0137)"><path
             d="m 0,0 c 2.021,1.326 3.958,-0.426 3.958,-0.426 0,0 0.833,-2.473 -1.187,-3.797 -2.02,-1.326 -6.126,-0.996 -6.126,-0.996 0,0 1.336,3.897 3.355,5.219"
             style="fill:#548132;fill-opacity:1;fill-rule:nonzero;stroke:none"
             id="path102"
             inkscape:connector-curvature="0" /></g><g
           id="g104"
           transform="translate(254.915,530.1123)"><path
             d="m 0,0 c -0.571,-2.746 -3.597,-2.899 -3.597,-2.899 0,0 -2.713,1.346 -2.143,4.091 0.571,2.746 4.21,5.843 4.21,5.843 0,0 2.101,-4.293 1.53,-7.035"
             style="fill:#548132;fill-opacity:1;fill-rule:nonzero;stroke:none"
             id="path106"
             inkscape:connector-curvature="0" /></g><g
           id="g108"
           transform="translate(235.7187,524.96)"><path
             d="m 0,0 c 2.708,-0.733 2.682,-3.763 2.682,-3.763 0,0 -1.507,-2.631 -4.213,-1.897 -2.704,0.731 -5.581,4.545 -5.581,4.545 0,0 4.408,1.845 7.112,1.115"
             style="fill:#93c025;fill-opacity:1;fill-rule:nonzero;stroke:none"
             id="path110"
             inkscape:connector-curvature="0" /></g><g
           id="g112"
           transform="translate(312.5937,527.2471)"><path
             d="m 0,0 c -2.689,-1.345 -4.831,1.098 -4.831,1.098 0,0 -0.667,3.178 2.018,4.519 2.69,1.346 7.711,0.344 7.711,0.344 C 4.898,5.961 2.686,1.344 0,0"
             style="fill:#548132;fill-opacity:1;fill-rule:nonzero;stroke:none"
             id="path114"
             inkscape:connector-curvature="0" /></g><g
           id="g116"
           transform="translate(292.5469,530.9209)"><path
             d="m 0,0 c -0.148,-3.193 -3.535,-3.915 -3.535,-3.915 0,0 -3.302,1.031 -3.152,4.225 0.152,3.197 3.696,7.344 3.696,7.344 0,0 3.141,-4.461 2.991,-7.654"
             style="fill:#548132;fill-opacity:1;fill-rule:nonzero;stroke:none"
             id="path118"
             inkscape:connector-curvature="0" /></g><g
           id="g120"
           transform="translate(335.9648,513.0244)"><path
             d="m 0,0 c -4.218,-0.373 -5.768,3.939 -5.768,3.939 0,0 0.767,4.518 4.985,4.894 C 3.438,9.208 9.521,5.296 9.521,5.296 9.521,5.296 4.225,0.376 0,0"
             style="fill:#93c025;fill-opacity:1;fill-rule:nonzero;stroke:none"
             id="path122"
             inkscape:connector-curvature="0" /></g><g
           id="g124"
           transform="translate(328.5039,530.1924)"><path
             d="m 0,0 c -0.499,-3.421 -4.211,-3.842 -4.211,-3.842 0,0 -3.448,1.458 -2.949,4.877 0.493,3.421 4.738,7.512 4.738,7.512 0,0 2.914,-5.128 2.422,-8.547"
             style="fill:#548132;fill-opacity:1;fill-rule:nonzero;stroke:none"
             id="path126"
             inkscape:connector-curvature="0" /></g><g
           id="g128"
           transform="translate(301.9443,532.6572)"><path
             d="m 0,0 c 1.454,-3.135 -1.431,-5.516 -1.431,-5.516 0,0 -3.678,-0.662 -5.129,2.475 -1.454,3.135 -0.128,8.882 -0.128,8.882 0,0 5.238,-2.706 6.688,-5.841"
             style="fill:#548132;fill-opacity:1;fill-rule:nonzero;stroke:none"
             id="path130"
             inkscape:connector-curvature="0" /></g><g
           id="g132"
           transform="translate(294.293,545.4443)"><path
             d="m 0,0 c 1.452,-3.135 -1.43,-5.514 -1.43,-5.514 0,0 -3.68,-0.662 -5.132,2.473 -1.453,3.137 -0.127,8.882 -0.127,8.882 0,0 5.237,-2.704 6.689,-5.841"
             style="fill:#93c025;fill-opacity:1;fill-rule:nonzero;stroke:none"
             id="path134"
             inkscape:connector-curvature="0" /></g><g
           id="g136"
           transform="translate(264.9365,541.957)"><path
             d="m 0,0 c -0.359,-3.438 -4.054,-4.004 -4.054,-4.004 0,0 -3.499,1.318 -3.14,4.755 0.359,3.438 4.442,7.693 4.442,7.693 0,0 3.113,-5.006 2.752,-8.444"
             style="fill:#93c025;fill-opacity:1;fill-rule:nonzero;stroke:none"
             id="path138"
             inkscape:connector-curvature="0" /></g><g
           id="g140"
           transform="translate(249.5957,536.5059)"><path
             d="m 0,0 c -1.146,-3 -4.6,-2.626 -4.6,-2.626 0,0 -2.831,2.024 -1.681,5.022 1.144,3.005 5.83,5.85 5.83,5.85 0,0 1.598,-5.243 0.451,-8.246"
             style="fill:#93c025;fill-opacity:1;fill-rule:nonzero;stroke:none"
             id="path142"
             inkscape:connector-curvature="0" /></g><g
           id="g144"
           transform="translate(256.708,546.6162)"><path
             d="m 0,0 c -0.878,-2.301 -3.523,-2.012 -3.523,-2.012 0,0 -2.167,1.55 -1.289,3.847 0.877,2.299 4.466,4.48 4.466,4.48 0,0 1.223,-4.014 0.346,-6.315"
             style="fill:#548132;fill-opacity:1;fill-rule:nonzero;stroke:none"
             id="path146"
             inkscape:connector-curvature="0" /></g><g
           id="g148"
           transform="translate(281.6016,549.3325)"><path
             d="m 0,0 c 1.391,-1.861 -0.176,-3.825 -0.176,-3.825 0,0 -2.328,-0.94 -3.716,0.922 -1.386,1.861 -1.307,5.821 -1.307,5.821 0,0 3.815,-1.057 5.199,-2.918"
             style="fill:#93c025;fill-opacity:1;fill-rule:nonzero;stroke:none"
             id="path150"
             inkscape:connector-curvature="0" /></g><g
           id="g152"
           transform="translate(271.1992,549.6147)"><path
             d="m 0,0 c -0.27,-2.597 -3.061,-3.024 -3.061,-3.024 0,0 -2.64,0.992 -2.369,3.586 0.269,2.595 3.348,5.808 3.348,5.808 0,0 2.35,-3.779 2.082,-6.37"
             style="fill:#548132;fill-opacity:1;fill-rule:nonzero;stroke:none"
             id="path154"
             inkscape:connector-curvature="0" /></g><g
           id="g156"
           transform="translate(302.4883,545.248)"><path
             d="m 0,0 c -1.338,-2.571 -4.396,-1.872 -4.396,-1.872 0,0 -2.321,2.109 -0.98,4.677 1.343,2.571 5.838,4.629 5.838,4.629 C 0.462,7.434 1.344,2.569 0,0"
             style="fill:#548132;fill-opacity:1;fill-rule:nonzero;stroke:none"
             id="path158"
             inkscape:connector-curvature="0" /></g><g
           id="g160"
           transform="translate(313.7734,549.1699)"><path
             d="m 0,0 c 0.396,-2.872 -2.497,-4.071 -2.497,-4.071 0,0 -3.116,0.371 -3.514,3.243 -0.393,2.872 2.077,7.153 2.077,7.153 0,0 3.54,-3.453 3.934,-6.325"
             style="fill:#93c025;fill-opacity:1;fill-rule:nonzero;stroke:none"
             id="path162"
             inkscape:connector-curvature="0" /></g><g
           id="g164"
           transform="translate(295.9355,556.7266)"><path
             d="m 0,0 c 1.488,-1.805 0.008,-3.857 0.008,-3.857 0,0 -2.299,-1.062 -3.785,0.742 -1.488,1.808 -1.604,5.799 -1.604,5.799 0,0 3.893,-0.876 5.381,-2.684"
             style="fill:#548132;fill-opacity:1;fill-rule:nonzero;stroke:none"
             id="path166"
             inkscape:connector-curvature="0" /></g><g
           id="g168"
           transform="translate(286.3477,556.7266)"><path
             d="m 0,0 c 1.49,-1.805 0.009,-3.857 0.009,-3.857 0,0 -2.299,-1.062 -3.786,0.742 -1.488,1.808 -1.604,5.799 -1.604,5.799 0,0 3.894,-0.876 5.381,-2.684"
             style="fill:#548132;fill-opacity:1;fill-rule:nonzero;stroke:none"
             id="path170"
             inkscape:connector-curvature="0" /></g><g
           id="g172"
           transform="translate(276.3779,554.6724)"><path
             d="m 0,0 c -0.785,-2.205 -3.307,-1.986 -3.307,-1.986 0,0 -2.089,1.428 -1.302,3.632 0.786,2.203 4.152,4.349 4.152,4.349 0,0 1.245,-3.79 0.457,-5.995"
             style="fill:#93c025;fill-opacity:1;fill-rule:nonzero;stroke:none"
             id="path174"
             inkscape:connector-curvature="0" /></g><g
           id="g176"
           transform="translate(334.7197,540.8179)"><path
             d="m 0,0 c 0.831,-2.188 -1.231,-3.654 -1.231,-3.654 0,0 -2.518,-0.271 -3.342,1.918 -0.832,2.189 0.342,6.005 0.342,6.005 0,0 3.407,-2.083 4.231,-4.269"
             style="fill:#93c025;fill-opacity:1;fill-rule:nonzero;stroke:none"
             id="path178"
             inkscape:connector-curvature="0" /></g><g
           id="g180"
           transform="translate(323.0137,548.9956)"><path
             d="m 0,0 c -1.331,-1.926 -3.712,-1.066 -3.712,-1.066 0,0 -1.648,1.916 -0.325,3.842 1.331,1.93 5.135,3.135 5.135,3.135 C 1.098,5.911 1.324,1.927 0,0"
             style="fill:#548132;fill-opacity:1;fill-rule:nonzero;stroke:none"
             id="path182"
             inkscape:connector-curvature="0" /></g><g
           id="g184"
           transform="translate(306.3164,555.7793)"><path
             d="m 0,0 c 0.226,-2.111 -1.92,-2.927 -1.92,-2.927 0,0 -2.274,0.341 -2.5,2.451 -0.226,2.113 1.68,5.193 1.68,5.193 0,0 2.513,-2.608 2.74,-4.717"
             style="fill:#93c025;fill-opacity:1;fill-rule:nonzero;stroke:none"
             id="path186"
             inkscape:connector-curvature="0" /></g><g
           id="g188"
           transform="translate(286.6338,472.0869)"><path
             d="m 0,0 c -1.971,2.641 0.257,5.425 0.257,5.425 0,0 3.305,1.336 5.274,-1.305 C 7.5,1.476 7.39,-4.146 7.39,-4.146 7.39,-4.146 1.969,-2.645 0,0"
             style="fill:#548132;fill-opacity:1;fill-rule:nonzero;stroke:none"
             id="path190"
             inkscape:connector-curvature="0" /></g><g
           id="g192"
           transform="translate(302.8398,475.9385)"><path
             d="m 0,0 c -2.271,2.494 -0.28,5.549 -0.28,5.549 0,0 3.233,1.686 5.498,-0.809 C 7.485,2.243 7.93,-3.484 7.93,-3.484 7.93,-3.484 2.266,-2.496 0,0"
             style="fill:#93c025;fill-opacity:1;fill-rule:nonzero;stroke:none"
             id="path194"
             inkscape:connector-curvature="0" /></g><g
           id="g196"
           transform="translate(312.1318,503.5776)"><path
             d="m 0,0 c -2.221,1.213 -1.557,3.864 -1.557,3.864 0,0 1.882,1.986 4.095,0.775 2.217,-1.216 3.931,-5.166 3.931,-5.166 0,0 -4.256,-0.687 -6.469,0.527"
             style="fill:#548132;fill-opacity:1;fill-rule:nonzero;stroke:none"
             id="path198"
             inkscape:connector-curvature="0" /></g><g
           id="g200"
           transform="translate(351.4033,499.5991)"><path
             d="m 0,0 c -2.213,1.214 -1.553,3.866 -1.553,3.866 0,0 1.878,1.986 4.095,0.773 2.217,-1.215 3.934,-5.167 3.934,-5.167 0,0 -4.259,-0.684 -6.476,0.528"
             style="fill:#93c025;fill-opacity:1;fill-rule:nonzero;stroke:none"
             id="path202"
             inkscape:connector-curvature="0" /></g><g
           id="g204"
           transform="translate(349.666,526.123)"><path
             d="m 0,0 c 0.246,-2.516 -2.313,-3.465 -2.313,-3.465 0,0 -2.699,0.434 -2.949,2.947 -0.243,2.513 2.053,6.159 2.053,6.159 0,0 2.963,-3.128 3.209,-5.641"
             style="fill:#93c025;fill-opacity:1;fill-rule:nonzero;stroke:none"
             id="path206"
             inkscape:connector-curvature="0" /></g><g
           id="g208"
           transform="translate(313.8965,493.9136)"><path
             d="m 0,0 c -2.329,-0.983 -3.995,1.184 -3.995,1.184 0,0 -0.387,2.704 1.939,3.688 2.329,0.981 6.49,-0.13 6.49,-0.13 C 4.434,4.742 2.326,0.982 0,0"
             style="fill:#548132;fill-opacity:1;fill-rule:nonzero;stroke:none"
             id="path210"
             inkscape:connector-curvature="0" /></g><g
           id="g212"
           transform="translate(338.2773,499.1338)"><path
             d="m 0,0 c -2.87,1.918 -1.652,5.453 -1.652,5.453 0,0 2.798,2.479 5.672,0.56 C 6.896,4.09 8.758,-1.501 8.758,-1.501 8.758,-1.501 2.874,-1.922 0,0"
             style="fill:#548132;fill-opacity:1;fill-rule:nonzero;stroke:none"
             id="path214"
             inkscape:connector-curvature="0" /></g><g
           id="g216"
           transform="translate(322.0937,506.9712)"><path
             d="m 0,0 c -2.806,0.609 -2.942,3.712 -2.942,3.712 0,0 1.409,2.767 4.211,2.16 C 4.08,5.265 7.221,1.514 7.221,1.514 7.221,1.514 2.805,-0.607 0,0"
             style="fill:#548132;fill-opacity:1;fill-rule:nonzero;stroke:none"
             id="path218"
             inkscape:connector-curvature="0" /></g><g
           id="g220"
           transform="translate(339.0332,482.0312)"><path
             d="m 0,0 c -5.148,-0.089 -6.65,5.271 -6.65,5.271 0,0 1.321,5.407 6.465,5.495 5.149,0.087 12.172,-5.18 12.172,-5.18 C 11.987,5.586 5.146,0.087 0,0"
             style="fill:#548132;fill-opacity:1;fill-rule:nonzero;stroke:none"
             id="path222"
             inkscape:connector-curvature="0" /></g><g
           id="g224"
           transform="translate(330.249,496.9824)"><path
             d="m 0,0 c -1.728,-2.995 -5.333,-2.008 -5.333,-2.008 0,0 -2.658,2.627 -0.931,5.62 1.728,2.993 7.187,5.219 7.187,5.219 0,0 0.801,-5.84 -0.923,-8.831"
             style="fill:#93c025;fill-opacity:1;fill-rule:nonzero;stroke:none"
             id="path226"
             inkscape:connector-curvature="0" /></g><g
           id="g228"
           transform="translate(322.0898,474.8506)"><path
             d="m 0,0 c -2.873,1.921 -1.652,5.457 -1.652,5.457 0,0 2.795,2.478 5.672,0.556 2.873,-1.921 4.734,-7.511 4.734,-7.511 0,0 -5.881,-0.421 -8.754,1.498"
             style="fill:#548132;fill-opacity:1;fill-rule:nonzero;stroke:none"
             id="path230"
             inkscape:connector-curvature="0" /></g><g
           id="g232"
           transform="translate(339.8379,487.2979)"><path
             d="m 0,0 c 0,0 -7.629,2.658 -22.175,1.769 3.384,2.047 8.861,6.054 9.593,10.892 0,0 -7.157,-9.936 -18.915,-10.927 V 1.732 c -8.401,-0.246 -17.587,-1.144 -26.351,-3.25 0,0 21.373,29.607 53.897,31.632 0,0 -3.641,2.058 -16.144,-1.178 1.882,2.627 6.599,9.958 4.878,15.457 0,0 -1.919,-11.058 -11.012,-17.255 -3.382,-1.102 -7.245,-2.516 -11.641,-4.327 0,0 2.826,14.573 -4.612,23.937 0,0 6.316,-17.532 -3.184,-26.58 -2.875,-2.744 -4.568,-2.835 -4.568,-2.835 0,0 -1.282,14.803 -8.589,21.107 0,0 7.865,-12.958 3.349,-24.435 -1.49,-3.785 -3.516,-6.298 -5.739,-8.665 -2.16,6.291 -17.676,15.931 -16.072,30.034 0,0 -3.107,-3.598 -2.036,-11.269 0,0 -0.829,0.835 -2.54,2.062 -6.71,7.748 -5.309,20.219 -5.309,20.219 -2.539,-5.937 -1.037,-13.149 0.152,-17.09 -4.529,2.349 -11.277,5.761 -20.012,6.078 0,0 8.933,-2.583 18.5,-9.115 -2.356,0.282 -7.227,0.347 -11.297,-2.893 0,0 11.588,2.645 20.89,-4.584 7.674,-6.799 13.265,-14.378 11.096,-20.859 -2.459,-3.369 -4.778,-7.825 -6.54,-14.778 0,0 -2.393,3.105 -6.541,6.274 -4.805,9.029 -2.053,18.652 -2.053,18.652 -3.798,-4.255 -2.618,-12.718 -1.982,-15.965 -3.255,1.866 -7.141,3.399 -11.503,3.804 0,0 19.644,-8.08 19.664,-23.382 3.111,-8.123 -6.661,-3.766 -11.436,-2.428 24.714,-20.705 49.404,12.127 96.089,-5.072 -37.051,20.505 -58.398,2.121 -71.671,5.314 0,0 -5.486,5.359 0.229,15.767 2.571,4.692 9.784,7.798 18.477,9.865 8.559,-1.051 14.422,-6.471 14.422,-6.471 -1.419,3.626 -5.671,6.077 -9.24,7.557 C -21.682,0.407 0,0 0,0"
             style="fill:#545353;fill-opacity:1;fill-rule:nonzero;stroke:none"
             id="path234"
             inkscape:connector-curvature="0" /></g><g
           id="g236"
           transform="translate(377.8887,457.1235)"><path
             d="M 0,0 C -53.773,15.408 -64.173,-18.052 -100.048,6.031 -68.405,-25.681 -51.563,8.157 0,0"
             style="fill:#93c025;fill-opacity:1;fill-rule:nonzero;stroke:none"
             id="path238"
             inkscape:connector-curvature="0" /></g><g
           id="g240"
           transform="translate(445.3486,427.4541)"><path
             d="m 0,0 c -0.89,0 -2.196,-0.394 -3.914,-1.184 -1.717,-0.79 -3.276,-1.925 -4.687,-3.404 -1.409,-1.477 -3.14,-3.883 -5.206,-7.218 l -16.844,-26.546 v -17.525 c 0,-4.301 0.478,-6.978 1.443,-8.043 1.307,-1.443 3.366,-2.165 6.186,-2.165 h 2.263 v -1.909 h -29.672 v 1.909 h 2.47 c 2.955,0 5.049,0.893 6.287,2.679 0.753,1.101 1.136,3.609 1.136,7.529 v 16.547 l -19.164,29.279 c -2.272,3.435 -3.804,5.583 -4.611,6.446 -0.807,0.858 -2.484,1.888 -5.022,3.091 C -70.026,-0.171 -71.019,0 -72.325,0 v 1.908 h 29.879 V 0 h -1.547 c -1.614,0 -3.1,-0.377 -4.454,-1.133 -1.355,-0.756 -2.039,-1.89 -2.039,-3.403 0,-1.235 1.053,-3.472 3.147,-6.702 l 14.573,-22.526 13.704,21.548 c 2.067,3.23 3.093,5.634 3.093,7.218 0,0.961 -0.247,1.82 -0.746,2.576 -0.499,0.756 -1.211,1.348 -2.135,1.779 C -19.78,-0.215 -21.169,0 -23.022,0 V 1.908 H 1.341 V 0 Z m -103.277,-10.361 c -5.255,5.568 -12.007,8.353 -20.252,8.353 -3.085,0 -6.61,-0.5 -10.557,-1.498 v -59.435 c 4.358,-0.965 8.019,-1.444 10.975,-1.444 7.964,0 14.579,2.802 19.834,8.402 5.255,5.6 7.881,13.198 7.881,22.787 0,9.657 -2.626,17.268 -7.881,22.835 m 10.762,-46.703 c -6.63,-7.287 -16.721,-10.93 -30.289,-10.93 h -31.217 v 1.909 h 2.625 c 2.955,0 5.051,0.944 6.286,2.833 0.756,1.135 1.131,3.677 1.131,7.631 v 45.156 c 0,4.365 -0.481,7.099 -1.442,8.197 -1.338,1.512 -3.33,2.268 -5.975,2.268 h -2.625 v 1.908 h 28.432 c 10.442,0 18.385,-1.186 23.83,-3.556 5.44,-2.372 9.819,-6.323 13.137,-11.858 3.311,-5.531 4.967,-11.926 4.967,-19.174 0,-9.725 -2.955,-17.857 -8.86,-24.384 m -98.385,-10.93 v 1.909 c 2.781,0.137 4.661,0.599 5.641,1.392 0.978,0.787 1.467,1.752 1.467,2.887 0,1.513 -0.687,3.9 -2.061,7.163 l -4.223,10.051 -1.444,3.819 -11.848,28.246 -12.156,-28.246 -1.598,-3.819 -4.739,-11.029 c -1.168,-2.716 -1.751,-4.744 -1.751,-6.082 0,-1.067 0.506,-2.004 1.518,-2.812 1.015,-0.807 3.202,-1.331 6.57,-1.57 v -1.909 h -21.998 v 1.909 c 2.919,0.517 4.808,1.184 5.667,2.008 1.751,1.652 3.691,5.001 5.82,10.054 l 24.574,57.529 h 1.803 l 24.314,-58.149 c 1.958,-4.671 3.736,-7.707 5.331,-9.099 1.598,-1.392 3.822,-2.172 6.673,-2.343 v -1.909 z m -80.255,40.517 c 6.524,-3.502 10.981,-6.191 13.367,-8.066 2.387,-1.871 4.225,-4.082 5.514,-6.623 1.287,-2.545 1.93,-5.207 1.93,-7.991 0,-5.292 -2.052,-9.856 -6.154,-13.687 -4.105,-3.832 -9.387,-5.748 -15.842,-5.748 -2.027,0 -3.934,0.154 -5.718,0.466 -1.066,0.171 -3.271,0.797 -6.62,1.882 -3.349,1.08 -5.469,1.621 -6.363,1.621 -0.858,0 -1.537,-0.257 -2.033,-0.773 -0.5,-0.513 -0.867,-1.581 -1.109,-3.196 h -1.905 v 23.971 h 1.905 c 0.893,-5.019 2.096,-8.772 3.606,-11.266 1.512,-2.49 3.821,-4.559 6.929,-6.209 3.108,-1.648 6.517,-2.472 10.225,-2.472 4.293,0 7.685,1.132 10.175,3.4 2.489,2.268 3.734,4.95 3.734,8.043 0,1.717 -0.471,3.451 -1.416,5.206 -0.944,1.751 -2.413,3.384 -4.404,4.896 -1.339,1.033 -4.997,3.222 -10.973,6.574 -5.976,3.349 -10.225,6.021 -12.75,8.015 -2.526,1.992 -4.44,4.192 -5.745,6.6 -1.303,2.404 -1.955,5.053 -1.955,7.936 0,5.019 1.921,9.339 5.768,12.965 3.845,3.626 8.74,5.439 14.682,5.439 3.708,0 7.641,-0.909 11.797,-2.733 1.923,-0.859 3.281,-1.287 4.07,-1.287 0.892,0 1.623,0.264 2.189,0.798 0.566,0.533 1.021,1.605 1.365,3.222 h 1.907 v -24.175 h -1.907 c -0.618,4.639 -1.724,8.333 -3.323,11.08 -1.597,2.751 -3.873,4.933 -6.825,6.548 -2.954,1.614 -6.009,2.422 -9.168,2.422 -3.575,0 -6.527,-1.092 -8.862,-3.271 -2.337,-2.186 -3.503,-4.666 -3.503,-7.45 0,-2.132 0.737,-4.071 2.215,-5.826 2.129,-2.576 7.194,-6.014 15.197,-10.311"
             style="fill:#545353;fill-opacity:1;fill-rule:nonzero;stroke:none"
             id="path242"
             inkscape:connector-curvature="0" /></g><g
           id="g244"
           transform="translate(229.541,386)"><path
             d="M 0,0 C 26.762,-12.924 47.778,10.141 69.716,5.336 36.841,17.578 26.568,-4.168 1.398,3.266 Z"
             style="fill:#93c025;fill-opacity:1;fill-rule:nonzero;stroke:none"
             id="path246"
             inkscape:connector-curvature="0" /></g><g
           id="g248"
           transform="translate(225.5986,388.1465)"><path
             d="M 0,0 C -3.975,2.41 -8.078,5.646 -12.329,9.905 -7.38,6.584 -2.943,4.221 1.109,2.596 Z"
             style="fill:#93c025;fill-opacity:1;fill-rule:nonzero;stroke:none"
             id="path250"
             inkscape:connector-curvature="0" /></g><g
           id="g252"
           transform="translate(436.4541,319.8564)"><path
             d="m 0,0 c -0.678,-1.868 -1.827,-2.802 -3.448,-2.802 -0.363,0 -0.767,0.062 -1.204,0.185 v 1.939 l 0.471,-0.03 c 0.63,0 1.102,0.112 1.424,0.342 0.315,0.229 0.568,0.616 0.752,1.156 l 0.363,0.951 -3.9,11.046 h 2.689 l 2.346,-7.533 2.258,7.533 h 2.662 z m -14.519,3.821 c 0.171,-0.188 0.466,-0.28 0.897,-0.28 0.287,0 0.582,0.034 0.876,0.103 v -1.93 c -0.568,-0.157 -1.115,-0.236 -1.643,-0.236 -1.915,0 -2.873,1.057 -2.873,3.17 v 6.291 h -1.827 v 1.848 h 1.827 v 2.699 h 2.491 v -2.699 h 1.963 v -1.848 h -1.963 V 4.741 c 0,-0.424 0.088,-0.731 0.252,-0.92 M -29.44,1.683 v 7.194 c 0,0.705 -0.158,1.228 -0.458,1.563 -0.309,0.339 -0.808,0.51 -1.493,0.51 -1.005,0 -1.757,-0.455 -2.251,-1.365 V 1.683 h -2.49 v 11.104 h 2.347 l 0.075,-1.283 c 0.821,0.992 1.896,1.488 3.23,1.488 2.312,0 3.489,-1.323 3.53,-3.971 V 1.683 Z m -17.57,6.773 c -0.054,0.835 -0.281,1.465 -0.671,1.896 -0.389,0.423 -0.93,0.639 -1.621,0.639 -0.684,0 -1.231,-0.239 -1.656,-0.718 -0.424,-0.479 -0.69,-1.146 -0.807,-2.002 h 4.755 z m -4.796,-2.011 c 0.075,-0.917 0.383,-1.642 0.916,-2.175 0.541,-0.535 1.218,-0.801 2.033,-0.801 1.142,0 2.073,0.462 2.792,1.385 l 1.34,-1.283 c -0.445,-0.663 -1.04,-1.18 -1.779,-1.546 -0.739,-0.363 -1.573,-0.547 -2.497,-0.547 -1.58,0 -2.867,0.496 -3.846,1.491 -0.984,0.996 -1.47,2.323 -1.47,3.978 v 0.309 c 0,1.108 0.212,2.1 0.643,2.973 0.424,0.869 1.027,1.549 1.799,2.035 0.773,0.486 1.636,0.728 2.587,0.728 1.512,0 2.675,-0.482 3.503,-1.446 0.821,-0.965 1.238,-2.33 1.238,-4.095 V 6.445 Z M -65.462,1.683 v 7.225 c 0,0.704 -0.158,1.221 -0.466,1.55 -0.307,0.328 -0.814,0.492 -1.525,0.492 -0.568,0 -1.033,-0.154 -1.39,-0.458 -0.362,-0.302 -0.615,-0.701 -0.759,-1.194 l 0.014,-7.615 h -2.497 V 8.99 c -0.034,1.307 -0.698,1.96 -1.998,1.96 -0.999,0 -1.711,-0.407 -2.128,-1.221 V 1.683 h -2.49 v 11.104 h 2.347 l 0.075,-1.159 c 0.78,0.909 1.846,1.364 3.202,1.364 1.484,0 2.497,-0.567 3.044,-1.703 0.807,1.136 1.943,1.703 3.407,1.703 1.225,0 2.142,-0.338 2.737,-1.015 0.602,-0.678 0.904,-1.676 0.917,-2.998 V 1.683 Z m -24.856,5.213 h -1.349 c -0.916,0 -1.614,-0.161 -2.079,-0.482 -0.466,-0.321 -0.698,-0.776 -0.698,-1.365 0,-0.479 0.157,-0.859 0.478,-1.146 0.316,-0.284 0.739,-0.424 1.279,-0.424 0.494,0 0.952,0.12 1.39,0.359 0.431,0.24 0.759,0.561 0.979,0.965 z m 0.369,-5.213 c -0.11,0.213 -0.205,0.557 -0.287,1.037 -0.794,-0.828 -1.766,-1.242 -2.915,-1.242 -1.116,0 -2.026,0.318 -2.73,0.955 -0.705,0.635 -1.054,1.422 -1.054,2.36 0,1.184 0.438,2.09 1.314,2.723 0.883,0.632 2.142,0.951 3.769,0.951 h 1.534 v 0.728 c 0,0.575 -0.158,1.034 -0.48,1.379 -0.328,0.346 -0.814,0.52 -1.471,0.52 -0.568,0 -1.033,-0.144 -1.395,-0.424 -0.363,-0.287 -0.541,-0.647 -0.541,-1.085 h -2.497 c 0,0.609 0.198,1.177 0.609,1.711 0.404,0.526 0.95,0.944 1.642,1.245 0.698,0.301 1.471,0.451 2.326,0.451 1.3,0 2.333,-0.328 3.106,-0.981 0.773,-0.654 1.177,-1.571 1.191,-2.754 V 4.249 c 0,-0.999 0.143,-1.796 0.424,-2.392 V 1.683 Z m -16.763,2.138 c 0.164,-0.188 0.466,-0.28 0.897,-0.28 0.287,0 0.582,0.034 0.876,0.103 v -1.93 c -0.569,-0.157 -1.116,-0.236 -1.643,-0.236 -1.915,0 -2.873,1.057 -2.873,3.17 v 6.291 h -1.827 v 1.848 h 1.827 v 2.699 h 2.49 v -2.699 h 1.964 v -1.848 h -1.964 V 4.741 c 0,-0.424 0.082,-0.731 0.253,-0.92 m -11.979,6.688 c -0.33,0.054 -0.671,0.082 -1.02,0.082 -1.143,0 -1.909,-0.438 -2.306,-1.314 V 1.683 h -2.498 v 11.104 h 2.382 l 0.062,-1.241 c 0.601,0.964 1.436,1.446 2.504,1.446 0.355,0 0.65,-0.048 0.882,-0.143 z m -17.435,-3.613 h -1.349 c -0.921,0 -1.614,-0.161 -2.079,-0.482 -0.466,-0.321 -0.698,-0.776 -0.698,-1.365 0,-0.479 0.159,-0.859 0.478,-1.146 0.317,-0.284 0.742,-0.424 1.277,-0.424 0.492,0 0.954,0.12 1.389,0.359 0.434,0.24 0.762,0.561 0.982,0.965 z m 0.369,-5.213 c -0.109,0.213 -0.209,0.557 -0.287,1.037 -0.794,-0.828 -1.766,-1.242 -2.917,-1.242 -1.115,0 -2.024,0.318 -2.727,0.955 -0.708,0.635 -1.058,1.422 -1.058,2.36 0,1.184 0.438,2.09 1.317,2.723 0.881,0.632 2.137,0.951 3.774,0.951 h 1.529 v 0.728 c 0,0.575 -0.161,1.034 -0.482,1.379 -0.326,0.346 -0.811,0.52 -1.468,0.52 -0.569,0 -1.035,-0.144 -1.398,-0.424 -0.361,-0.287 -0.544,-0.647 -0.544,-1.085 h -2.492 c 0,0.609 0.2,1.177 0.604,1.711 0.404,0.526 0.955,0.944 1.647,1.245 0.695,0.301 1.469,0.451 2.326,0.451 1.3,0 2.336,-0.328 3.108,-0.981 0.773,-0.654 1.17,-1.571 1.191,-2.754 V 4.249 c 0,-0.999 0.144,-1.796 0.424,-2.392 V 1.683 Z m -18.406,8.293 c -0.441,0.649 -1.072,0.974 -1.894,0.974 -1.019,0 -1.751,-0.421 -2.196,-1.262 V 4.762 c 0.452,-0.863 1.191,-1.293 2.217,-1.293 0.794,0 1.415,0.318 1.863,0.958 0.447,0.639 0.672,1.611 0.672,2.911 0,1.108 -0.221,1.987 -0.662,2.638 m 1.976,-6.965 c -0.781,-1.024 -1.828,-1.533 -3.141,-1.533 -1.218,0 -2.193,0.4 -2.925,1.201 v -5.265 h -2.494 v 15.373 h 2.299 l 0.103,-1.129 c 0.732,0.89 1.728,1.334 2.987,1.334 1.354,0 2.416,-0.506 3.186,-1.512 0.77,-1.012 1.154,-2.412 1.154,-4.204 V 7.122 c 0,-1.717 -0.389,-3.089 -1.169,-4.111 m -20.175,3.885 h -1.345 c -0.923,0 -1.618,-0.161 -2.083,-0.482 -0.465,-0.321 -0.698,-0.776 -0.698,-1.365 0,-0.479 0.159,-0.859 0.477,-1.146 0.319,-0.284 0.744,-0.424 1.277,-0.424 0.492,0 0.958,0.12 1.391,0.359 0.435,0.24 0.762,0.561 0.981,0.965 z m 0.369,-5.213 c -0.11,0.213 -0.205,0.557 -0.287,1.037 -0.795,-0.828 -1.767,-1.242 -2.914,-1.242 -1.116,0 -2.026,0.318 -2.731,0.955 -0.705,0.635 -1.056,1.422 -1.056,2.36 0,1.184 0.439,2.09 1.318,2.723 0.879,0.632 2.137,0.951 3.771,0.951 h 1.53 v 0.728 c 0,0.575 -0.162,1.034 -0.483,1.379 -0.321,0.346 -0.81,0.52 -1.467,0.52 -0.568,0 -1.035,-0.144 -1.396,-0.424 -0.362,-0.287 -0.544,-0.647 -0.544,-1.085 h -2.495 c 0,0.609 0.203,1.177 0.606,1.711 0.405,0.526 0.954,0.944 1.648,1.245 0.692,0.301 1.47,0.451 2.323,0.451 1.302,0 2.338,-0.328 3.111,-0.981 0.773,-0.654 1.17,-1.571 1.191,-2.754 V 4.249 c 0,-0.999 0.139,-1.796 0.421,-2.392 V 1.683 Z m -27.613,0 h -2.495 v 11.104 h 2.495 z m -0.197,13.047 c -0.245,-0.25 -0.595,-0.373 -1.047,-0.373 -0.45,0 -0.798,0.123 -1.04,0.373 -0.243,0.25 -0.366,0.565 -0.366,0.941 0,0.384 0.123,0.701 0.366,0.954 0.242,0.254 0.59,0.38 1.04,0.38 0.452,0 0.802,-0.126 1.047,-0.38 0.246,-0.253 0.369,-0.57 0.369,-0.954 0,-0.376 -0.123,-0.691 -0.369,-0.941 m -25.12,-6.274 c -0.056,0.835 -0.278,1.465 -0.667,1.896 -0.389,0.423 -0.931,0.639 -1.622,0.639 -0.684,0 -1.236,-0.239 -1.658,-0.718 -0.42,-0.479 -0.689,-1.146 -0.805,-2.002 h 4.752 z m -4.794,-2.011 c 0.076,-0.917 0.381,-1.642 0.918,-2.175 0.539,-0.535 1.215,-0.801 2.028,-0.801 1.143,0 2.073,0.462 2.792,1.385 l 1.345,-1.283 c -0.445,-0.663 -1.039,-1.18 -1.783,-1.546 -0.74,-0.363 -1.573,-0.547 -2.497,-0.547 -1.58,0 -2.863,0.496 -3.843,1.491 -0.983,0.996 -1.472,2.323 -1.472,3.978 v 0.309 c 0,1.108 0.213,2.1 0.64,2.973 0.428,0.869 1.028,1.549 1.802,2.035 0.772,0.486 1.635,0.728 2.584,0.728 1.514,0 2.682,-0.482 3.507,-1.446 0.824,-0.965 1.236,-2.33 1.236,-4.095 V 6.445 Z m -13.81,11.001 h 2.494 V 1.682 h -2.494 z m -11.885,0 h 2.494 V 1.682 h -2.494 z M -264.8,1.683 h -2.494 v 11.104 h 2.494 z m -0.195,13.047 c -0.248,-0.25 -0.595,-0.373 -1.047,-0.373 -0.452,0 -0.799,0.123 -1.042,0.373 -0.244,0.25 -0.364,0.565 -0.364,0.941 0,0.384 0.12,0.701 0.364,0.954 0.243,0.254 0.59,0.38 1.042,0.38 0.452,0 0.799,-0.126 1.047,-0.38 0.246,-0.253 0.369,-0.57 0.369,-0.954 0,-0.376 -0.123,-0.691 -0.369,-0.941 M -279.372,1.683 h -2.167 l -3.878,11.104 h 2.587 l 2.381,-7.943 2.348,7.943 h 2.576 z"
             style="fill:#838383;fill-opacity:1;fill-rule:nonzero;stroke:none"
             id="path254"
             inkscape:connector-curvature="0" /></g></g></g></g></svg>